<svg xmlns="http://www.w3.org/2000/svg" viewBox="0 0 17.5 22.74"><defs><style>.cls-1{fill:#294634;}</style></defs><title>Asset 1</title><g id="Layer_2" data-name="Layer 2"><g id="Layer_1-2" data-name="Layer 1"><g id="IaO4ya.tif"><path class="cls-1" d="M0,21.05V10.88c0-.05,0-.11,0-.17a1.78,1.78,0,0,1,1.5-1.48c.14,0,.28,0,.44-.05V8.89c0-1,0-2,.07-2.93A6.74,6.74,0,0,1,6.94.27C7.37.15,7.82.09,8.26,0H9.33c.35.06.7.11,1,.18a6.8,6.8,0,0,1,5.22,6c.06.82,0,1.66,0,2.48,0,.18,0,.35,0,.54h.2a1.81,1.81,0,0,1,1.61,1.4l.06.28V21.05c0,.07,0,.13,0,.19a1.79,1.79,0,0,1-1,1.34,4.34,4.34,0,0,1-.47.16H1.55l-.12,0A1.81,1.81,0,0,1,.06,21.35ZM12.63,9.19c0-.91,0-1.8,0-2.68A3.79,3.79,0,0,0,8.92,3,3.83,3.83,0,0,0,5,6.73C5,7.5,5,8.27,5,9a.77.77,0,0,0,0,.15ZM8,17.85H8c0,.37,0,.73,0,1.09a.85.85,0,0,0,.85.87.81.81,0,0,0,.83-.87c0-.68,0-1.36,0-2a.65.65,0,0,1,.26-.55,1.64,1.64,0,0,0,.52-1.84,1.73,1.73,0,0,0-1.55-1.14,1.71,1.71,0,0,0-1.64,1.1,1.6,1.6,0,0,0,.48,1.86.64.64,0,0,1,.26.59C8,17.23,8,17.54,8,17.85Z"/></g></g></g></svg>