<svg xmlns="http://www.w3.org/2000/svg" viewBox="0 0 23.64 26.1"><defs><style>.cls-1{fill:#715745;}</style></defs><title>ig</title><g id="Layer_2" data-name="Layer 2"><g id="Layer_1-2" data-name="Layer 1"><path class="cls-1" d="M18.08,4.66a1.46,1.46,0,0,0-1.39,1.53,1.4,1.4,0,1,0,2.78,0A1.46,1.46,0,0,0,18.08,4.66Z"/><path class="cls-1" d="M11.92,6.62C8.71,6.62,6.1,9.5,6.1,13.05s2.61,6.43,5.82,6.43,5.82-2.89,5.82-6.43S15.13,6.62,11.92,6.62Zm0,10.55a3.94,3.94,0,0,1-3.73-4.12,3.94,3.94,0,0,1,3.73-4.12,4,4,0,0,1,3.73,4.12A4,4,0,0,1,11.92,17.17Z"/><path class="cls-1" d="M16.54,26.1H7.1C3.19,26.1,0,22.58,0,18.26V7.84C0,3.52,3.19,0,7.1,0h9.44c3.92,0,7.1,3.52,7.1,7.84V18.26C23.64,22.58,20.46,26.1,16.54,26.1ZM7.1,2.46A5.15,5.15,0,0,0,2.22,7.84V18.26A5.15,5.15,0,0,0,7.1,23.64h9.44a5.15,5.15,0,0,0,4.88-5.38V7.84a5.15,5.15,0,0,0-4.88-5.38Z"/></g></g></svg>