<svg xmlns="http://www.w3.org/2000/svg" viewBox="0 0 20.21 26.1"><defs><style>.cls-1{fill:#715745;fill-rule:evenodd;}</style></defs><title>p</title><g id="Layer_2" data-name="Layer 2"><g id="Layer_1-2" data-name="Layer 1"><path class="cls-1" d="M8.45,17c0,.08,0,.14-.06.2-1,3.76-1.06,4.59-2.05,6.34a20.77,20.77,0,0,1-1.58,2.37c-.07.08-.13.19-.26.16s-.16-.16-.17-.27a19.81,19.81,0,0,1-.21-3.44c0-1.5.23-2,2.17-10.15a.49.49,0,0,0,0-.34,5.76,5.76,0,0,1-.15-3.8c.88-2.78,4-3,4.58-.7.33,1.41-.56,3.27-1.25,6-.57,2.26,2.09,3.86,4.37,2.21,2.09-1.52,2.91-5.16,2.75-7.75C16.24,2.71,10.59,1.59,7,3.25c-4.11,1.9-5,7-3.19,9.33.24.29.42.47.34.77-.12.47-.22.94-.35,1.4a.5.5,0,0,1-.74.33A4.16,4.16,0,0,1,1.35,13.8c-1.58-2-2-5.81,0-9.08A10.91,10.91,0,0,1,11.93.08c4.68.53,7.64,3.73,8.19,7.36a12.22,12.22,0,0,1-2.25,8.61c-2.67,3.31-7,3.53-9,1.5A5.83,5.83,0,0,1,8.45,17Z"/></g></g></svg>