<svg xmlns="http://www.w3.org/2000/svg" viewBox="0 0 26.03 26.1"><defs><style>.cls-1,.cls-2{fill:#715745;}.cls-2{fill-rule:evenodd;}</style></defs><title>wa</title><g id="Layer_2" data-name="Layer 2"><g id="Layer_1-2" data-name="Layer 1"><path class="cls-1" d="M0,26.1l1.87-7A12.93,12.93,0,1,1,7,24.22Zm7.37-4.5.44.27a10.5,10.5,0,1,0-3.59-3.56l.27.44-1,3.9Z"/><path class="cls-2" d="M17.94,14.68a2.15,2.15,0,0,0-1.85-.41c-.48.19-.78.94-1.09,1.33a.48.48,0,0,1-.6.13,8.35,8.35,0,0,1-4.17-3.58.51.51,0,0,1,.06-.7,2.78,2.78,0,0,0,.76-1.23,2.66,2.66,0,0,0-.34-1.45A3.46,3.46,0,0,0,9.64,7.14,1.48,1.48,0,0,0,8,7.38,3.27,3.27,0,0,0,6.91,10a3.66,3.66,0,0,0,.1.81,6.77,6.77,0,0,0,.79,1.81,14.66,14.66,0,0,0,.81,1.24,12.69,12.69,0,0,0,3.55,3.3,11.19,11.19,0,0,0,2.21,1.05,5,5,0,0,0,2.58.4,3.1,3.1,0,0,0,2.33-1.73,1.44,1.44,0,0,0,.11-.89C19.26,15.34,18.43,15,17.94,14.68Z"/></g></g></svg>