<svg xmlns="http://www.w3.org/2000/svg" viewBox="0 0 22.62 13.47"><defs><style>.cls-1{fill:#715745;}</style></defs><title>x</title><g id="Layer_2" data-name="Layer 2"><g id="Layer_1-2" data-name="Layer 1"><g id="xiwu5s"><path class="cls-1" d="M19.39,13.47H16.46a.65.65,0,0,1-.43-.13q-2-1.65-4-3.29L10.52,8.77c-.17-.14-.17-.14-.33,0l-4.87,4-.7.57a.43.43,0,0,1-.31.1H2.11c-.07,0-.15,0-.19,0s0-.08.08-.11l3.65-3L8.87,7.65c.12-.09.11-.15,0-.25Q4.49,3.8.13.18S0,.09,0,0,.18,0,.27,0H6.16a.6.6,0,0,1,.42.13C8.28,1.55,10,3,11.71,4.38l.41.34c.15.12.15.12.3,0L15,2.62,18,.14A.58.58,0,0,1,18.36,0H20.5c.07,0,.16,0,.19,0s0,.08-.08.12L16,4l-2.3,1.9c-.12.1,0,.15,0,.21l4.38,3.63,4.37,3.62.09.07c.05,0,0,.08-.06.08H19.39Zm-1.17-1H19.3c.05,0,.11,0,.14,0s0-.06-.06-.08l-.27-.23L13,7.06,5.77,1.11A.55.55,0,0,0,5.38,1h-2c-.07,0-.17,0-.21,0s0,.08.09.11l1.57,1.3L12,8.36l4.8,4a.65.65,0,0,0,.47.14Z"/></g></g></g></svg>